<svg width="354" height="174" viewBox="0 0 354 174" fill="none" xmlns="http://www.w3.org/2000/svg">
<path d="M30.2078 39.3029C31.0922 38.202 32.915 36.2889 35.8087 35.3685C37.4932 34.8331 38.919 34.8331 39.6589 34.8391C41.5118 34.8511 43.3407 35.2482 45.1575 35.9941C48.1475 37.2274 50.8125 39.1104 53.6942 40.5663C56.6661 42.0642 59.8305 43.1892 63.0971 43.845C73.4386 45.9205 89.8983 43.3096 92.1844 30.7783C93.159 25.4481 91.2158 19.7691 86.8843 16.4242C82.625 13.1395 76.224 12.1829 71.2307 14.2283C66.5022 16.1655 63.7168 21.0204 64.1439 26.0798C64.5711 31.1453 68.3611 34.7308 73.3123 35.4286C77.8904 36.0723 83.2807 34.0149 84.2373 29.0276C84.7005 26.6092 84.1109 23.8479 82.0655 22.3018C80.0682 20.7918 76.8918 20.491 74.8343 22.2115C73.4206 23.3907 73.0897 25.0691 72.9994 25.6707" stroke="#191919" stroke-width="3.60958" stroke-miterlimit="10"/>
<path d="M15.968 33.6057C27.1216 43.0869 36.7171 55.0767 41.3133 69.136C42.7451 73.5157 45.0071 82.4313 42.8835 93.0736C42.3661 95.6665 41.1148 101.64 36.9036 108.005C34.6897 111.356 32.5119 113.516 31.9103 114.099C28.1503 117.757 21.6411 124.092 13.8744 122.847C9.41059 122.131 4.33311 118.876 2.61856 113.636C0.158024 106.128 5.33778 96.8637 12.8517 95.2153C15.962 94.5355 20.0589 94.9325 23.2233 97.2427C23.9873 97.8021 25.6597 99.0535 26.6644 101.352C27.9759 104.354 27.7112 108.15 25.6417 111.073C25.3228 111.525 22.5074 115.363 17.9653 115.17C17.5502 115.152 13.0081 114.839 11.3116 111.073C10.1445 108.493 11.089 105.99 11.3116 105.442" stroke="#191919" stroke-width="3.60958" stroke-miterlimit="10"/>
<path d="M82.8957 42.1484C92.1362 70.1107 94.5065 85.301 90.0186 87.7194C88.0333 88.7842 84.7125 87.3645 80.0501 83.4481" stroke="#191919" stroke-width="3.60958" stroke-miterlimit="10"/>
<path d="M84.4959 86.5161C86.4872 104.071 83.2626 109.72 79.8877 111.591C73.7634 114.99 66.1111 106.525 52.2503 106.982C43.4249 107.277 36.3441 111.049 31.778 114.147" stroke="#191919" stroke-width="3.60958" stroke-miterlimit="10"/>
<path d="M61.0637 62.0853C63.416 61.2671 73.5529 57.8741 75.7788 61.1348C76.4165 62.0673 76.5368 63.7397 75.7788 64.4556C74.8583 65.3219 72.5843 64.8406 70.0817 63.0298" stroke="#191919" stroke-width="3.60958" stroke-miterlimit="10"/>
<path d="M26.887 31.7107C23.4699 24.5397 17.6164 20.4428 12.6472 21.267C8.3518 21.9829 4.2068 26.4648 3.62926 31.2355C1.93276 45.2226 32.0367 52.4117 33.0594 72.0598C33.1496 73.7684 33.3542 79.2068 29.7386 82.9788C25.8402 87.0456 19.1866 87.4066 14.5483 85.8244C13.1405 85.3431 10.6379 84.4888 8.85113 82.0283C6.48685 78.7677 6.45075 74.1474 8.37586 70.6341C10.0844 67.5178 12.8337 66.1702 13.5015 65.8634C14.2655 65.5205 16.0162 64.7504 18.3443 64.9369C19.2708 65.0091 22.0682 65.2257 24.1136 67.584C26.1831 69.9663 25.9966 72.872 25.9425 73.4856C25.8102 74.9836 25.2687 76.0605 25.0642 76.4335C24.7273 77.0531 23.7467 78.8699 21.6712 79.658C19.8483 80.3438 16.9607 80.3198 15.4146 78.3345C14.2234 76.8004 14.47 74.9114 14.5483 74.4362" stroke="#191919" stroke-width="3.60958" stroke-miterlimit="10"/>
<path d="M29.7386 21.5197C30.4605 22.4702 36.29 29.9119 45.6027 29.7074C47.0766 29.6773 52.858 29.551 56.8586 25.0992C61.4488 19.9976 61.8398 11.2684 57.3699 6.1669C54.2958 2.65959 49.9402 2.14823 49.1822 2.07003C47.4977 1.90158 41.8367 1.67297 38.4377 6.1669C36.302 8.9884 35.177 13.5244 37.415 17.4228C39.4664 21.0023 43.6716 22.8672 47.3473 22.2295C47.991 22.1152 50.7644 21.64 52.4308 19.1855C53.8326 17.11 54.4402 13.6327 52.4308 11.3527C51.2337 9.99306 48.8934 8.82596 46.6254 9.74641C44.0626 10.7872 43.5753 13.6869 43.5573 13.8433" stroke="#191919" stroke-width="3.60958" stroke-miterlimit="10"/>
<path d="M110.12 152.46C107.12 152.46 104.66 151.83 102.74 150.57C100.82 149.31 99.37 147.6 98.39 145.44C97.41 143.28 96.85 140.78 96.71 137.94C96.57 135.1 96.75 132.12 97.28 129C97.67 126.68 98.37 124.45 98.99 122.19C99.82 119.14 100 117.14 99.7 116.13C99.41 115.17 90.16 95.59 91.7 94.13C93.24 92.67 109.55 106.13 111.7 106.13C113.7 106.13 115.24 106.13 117.68 106.13C121.28 106.13 124.1 106.88 126.14 108.38C128.18 109.88 129.53 112.02 130.19 114.8C130.85 117.58 130.79 120.93 130.1 124.85C129.68 127.25 129.11 129.72 128.33 132.26C127.55 134.8 126.6 137.28 125.48 139.7C124.36 142.12 123.05 144.29 121.55 146.21C120.05 148.13 118.35 149.65 116.45 150.77C114.55 151.89 112.44 152.45 110.12 152.45V152.46ZM110.06 148.14C111.58 148.14 113.03 147.66 114.41 146.7C115.79 145.74 117.07 144.45 118.25 142.83C119.43 141.21 120.5 139.41 121.46 137.43C122.42 135.45 123.23 133.4 123.89 131.28C124.55 129.16 125.04 127.16 125.36 125.28C125.72 123.24 125.91 121.33 125.93 119.55C125.95 117.77 125.7 116.19 125.18 114.81C124.66 113.43 123.77 112.36 122.51 111.6C121.25 110.84 119.7 110.13 117.32 110.46C114.64 110.83 112.7 111.13 111.7 111.13C104.96 111.13 99.7 103.13 98.7 103.13C96.91 103.13 104.7 111.13 104.7 118.13C104.7 120.01 103.73 122.92 103.19 124.68C102.65 126.44 102.24 128.12 101.96 129.72C101.56 131.96 101.37 134.17 101.39 136.35C101.41 138.53 101.71 140.51 102.29 142.29C102.87 144.07 103.79 145.49 105.05 146.55C106.31 147.61 107.98 148.14 110.06 148.14Z" fill="#191919"/>
<path d="M132.68 152.46C132.12 152.46 131.58 152.26 131.06 151.86C130.54 151.46 130.34 150.84 130.46 150L137.9 108.06C138.02 107.34 138.3 106.84 138.74 106.56C139.18 106.28 139.66 106.14 140.18 106.14C140.9 106.14 141.5 106.36 141.98 106.8C142.46 107.24 142.64 107.84 142.52 108.6L135.14 150.36C135.02 151.04 134.72 151.56 134.24 151.92C133.76 152.28 133.24 152.46 132.68 152.46Z" fill="#191919"/>
<path d="M148.46 173.83C146.9 173.83 145.47 173.61 144.17 173.17C142.87 172.73 141.84 172.21 141.08 171.61C140.56 171.21 140.28 170.71 140.24 170.11C140.2 169.51 140.38 168.93 140.78 168.37C141.1 167.93 141.54 167.65 142.1 167.53C142.66 167.41 143.2 167.51 143.72 167.83C144.28 168.23 144.97 168.55 145.79 168.79C146.61 169.03 147.46 169.15 148.34 169.15C149.66 169.15 150.85 168.81 151.91 168.13C152.97 167.45 153.89 166.32 154.67 164.74C155.45 163.16 156.08 161.01 156.56 158.29L161.6 129.79C161.68 129.39 161.82 129.02 162.02 128.68C162.22 128.34 162.52 128.06 162.92 127.84C163.32 127.62 163.86 127.51 164.54 127.51C165.3 127.51 165.83 127.73 166.13 128.17C166.43 128.61 166.52 129.19 166.4 129.91L161.3 158.65C160.38 163.89 158.87 167.73 156.77 170.17C154.67 172.61 151.9 173.83 148.46 173.83ZM150.62 152.77C148.06 152.77 146.21 151.92 145.07 150.22C143.93 148.52 143.64 146.11 144.2 142.99L146.6 129.31C146.68 128.99 146.88 128.61 147.2 128.17C147.52 127.73 148.2 127.51 149.24 127.51C150.16 127.51 150.76 127.77 151.04 128.29C151.32 128.81 151.42 129.33 151.34 129.85L148.88 143.53C148.6 145.09 148.71 146.31 149.21 147.19C149.71 148.07 150.5 148.51 151.58 148.51C152.74 148.51 154.05 147.74 155.51 146.2C156.97 144.66 158.68 142.27 160.64 139.03L159.68 145.57C158.04 148.09 156.5 149.92 155.06 151.06C153.62 152.2 152.14 152.77 150.62 152.77Z" fill="#191919"/>
<path d="M171.86 152.46C170.94 152.46 170.36 152.22 170.12 151.74C169.88 151.26 169.78 150.8 169.82 150.36L173.48 129.78C173.56 129.38 173.7 129.01 173.9 128.67C174.1 128.33 174.4 128.05 174.8 127.83C175.2 127.61 175.74 127.5 176.42 127.5C177.18 127.5 177.71 127.72 178.01 128.16C178.31 128.6 178.4 129.18 178.28 129.9L174.62 150.48C174.58 150.76 174.37 151.16 173.99 151.68C173.61 152.2 172.9 152.46 171.86 152.46ZM187.04 152.46C186.16 152.46 185.57 152.19 185.27 151.65C184.97 151.11 184.86 150.6 184.94 150.12L187.34 136.44C187.54 135.56 187.58 134.74 187.46 133.98C187.34 133.22 187.06 132.59 186.62 132.09C186.18 131.59 185.52 131.34 184.64 131.34C183.36 131.34 182.05 132.12 180.71 133.68C179.37 135.24 177.68 137.66 175.64 140.94L176.6 134.4C178.16 132.04 179.59 130.24 180.89 129C182.19 127.76 183.78 127.14 185.66 127.14C187.38 127.14 188.77 127.56 189.83 128.4C190.89 129.24 191.62 130.41 192.02 131.91C192.42 133.41 192.44 135.1 192.08 136.98L189.68 150.66C189.6 150.94 189.4 151.31 189.08 151.77C188.76 152.23 188.08 152.46 187.04 152.46ZM202.04 152.46C201.16 152.46 200.58 152.19 200.3 151.65C200.02 151.11 199.92 150.6 200 150.12L202.4 136.44C202.56 135.56 202.59 134.74 202.49 133.98C202.39 133.22 202.12 132.59 201.68 132.09C201.24 131.59 200.6 131.34 199.76 131.34C198.44 131.34 197.1 132.12 195.74 133.68C194.38 135.24 192.68 137.66 190.64 140.94L191.66 134.4C193.18 132.04 194.6 130.24 195.92 129C197.24 127.76 198.82 127.14 200.66 127.14C202.5 127.14 203.84 127.56 204.92 128.4C206 129.24 206.73 130.41 207.11 131.91C207.49 133.41 207.5 135.1 207.14 136.98L204.74 150.66C204.66 150.94 204.45 151.31 204.11 151.77C203.77 152.23 203.08 152.46 202.04 152.46Z" fill="#191919"/>
<path d="M209.02 173.83C208.3 173.83 207.75 173.64 207.37 173.26C206.99 172.88 206.86 172.35 206.98 171.67L214.48 129.61C214.56 129.29 214.7 128.96 214.9 128.62C215.1 128.28 215.4 128.01 215.8 127.81C216.2 127.61 216.66 127.51 217.18 127.51C217.9 127.51 218.46 127.71 218.86 128.11C219.26 128.51 219.38 129.07 219.22 129.79L211.78 171.85C211.7 172.37 211.4 172.83 210.88 173.23C210.36 173.63 209.74 173.83 209.02 173.83ZM228.58 152.47C227.7 152.47 227.12 152.19 226.84 151.63C226.56 151.07 226.46 150.51 226.54 149.95L228.94 136.45C229.1 135.57 229.13 134.75 229.03 133.99C228.93 133.23 228.66 132.6 228.22 132.1C227.78 131.6 227.12 131.35 226.24 131.35C224.96 131.35 223.54 132.13 221.98 133.69C220.42 135.25 218.62 137.67 216.58 140.95L217.54 134.41C219.1 132.05 220.64 130.25 222.16 129.01C223.68 127.77 225.36 127.15 227.2 127.15C229.04 127.15 230.37 127.57 231.43 128.41C232.49 129.25 233.21 130.42 233.59 131.92C233.97 133.42 233.98 135.11 233.62 136.99L232.36 144.61L233.98 143.23C234.98 142.43 235.88 142.05 236.68 142.09C237.24 142.13 237.7 142.32 238.06 142.66C238.42 143 238.58 143.47 238.54 144.07C238.54 144.51 238.38 144.95 238.06 145.39C237.74 145.83 237.28 146.29 236.68 146.77L230.86 151.57C230.54 151.85 230.21 152.07 229.87 152.23C229.53 152.39 229.1 152.47 228.58 152.47Z" fill="#191919"/>
<path d="M245.64 173.83C244.08 173.83 242.66 173.61 241.38 173.17C240.1 172.73 239.06 172.21 238.26 171.61C237.78 171.21 237.51 170.71 237.45 170.11C237.39 169.51 237.56 168.93 237.96 168.37C238.28 167.93 238.72 167.68 239.28 167.62C239.84 167.56 240.38 167.71 240.9 168.07C241.46 168.43 242.16 168.74 243 169C243.84 169.26 244.7 169.39 245.58 169.39C246.94 169.39 248.15 169.03 249.21 168.31C250.27 167.59 251.19 166.42 251.97 164.8C252.75 163.18 253.36 161.01 253.8 158.29L259.26 127.51H261.48C262.32 127.51 262.92 127.73 263.28 128.17C263.64 128.61 263.74 129.21 263.58 129.97L258.54 158.65C257.58 163.89 256.05 167.73 253.95 170.17C251.85 172.61 249.08 173.83 245.64 173.83ZM247.08 152.77C244.68 152.77 242.92 151.8 241.8 149.86C240.68 147.92 240.42 145.29 241.02 141.97C241.58 139.01 242.61 136.45 244.11 134.29C245.61 132.13 247.52 130.46 249.84 129.28C252.16 128.1 254.76 127.51 257.64 127.51H260.7L260.04 131.77H257.88C254.72 131.77 252.06 132.69 249.9 134.53C247.74 136.37 246.38 138.85 245.82 141.97C245.5 143.97 245.57 145.56 246.03 146.74C246.49 147.92 247.2 148.51 248.16 148.51C249.48 148.51 251.04 147.2 252.84 144.58C254.64 141.96 256.42 138.31 258.18 133.63L257.52 142.03C256.04 145.63 254.38 148.32 252.54 150.1C250.7 151.88 248.88 152.77 247.08 152.77Z" fill="#191919"/>
<path d="M269.02 152.46C268.38 152.46 267.84 152.25 267.4 151.83C266.96 151.41 266.8 150.82 266.92 150.06L270.52 129.78C270.64 129.02 270.97 128.45 271.51 128.07C272.05 127.69 272.58 127.5 273.1 127.5C273.7 127.5 274.24 127.73 274.72 128.19C275.2 128.65 275.36 129.32 275.2 130.2L271.72 150.18C271.6 150.94 271.26 151.51 270.7 151.89C270.14 152.27 269.58 152.46 269.02 152.46ZM272.2 142.26L273.34 135.78C274.1 134.14 274.97 132.66 275.95 131.34C276.93 130.02 277.93 128.99 278.95 128.25C279.97 127.51 280.92 127.14 281.8 127.14C282.6 127.14 283.16 127.3 283.48 127.62C283.8 127.94 284.07 128.26 284.29 128.58C284.51 128.9 284.84 129.06 285.28 129.06C285.68 129.06 286.11 128.93 286.57 128.67C287.03 128.41 287.38 128.2 287.62 128.04C288.1 127.72 288.64 127.53 289.24 127.47C289.84 127.41 290.36 127.52 290.8 127.8C291.24 128.08 291.46 128.56 291.46 129.24C291.46 130 291.2 130.59 290.68 131.01C290.16 131.43 289.62 131.8 289.06 132.12C288.42 132.52 287.72 132.84 286.96 133.08C286.2 133.32 285.6 133.44 285.16 133.44C284.44 133.44 283.84 133.28 283.36 132.96C282.88 132.64 282.45 132.33 282.07 132.03C281.69 131.73 281.32 131.58 280.96 131.58C280.56 131.58 279.99 131.89 279.25 132.51C278.51 133.13 277.56 134.21 276.4 135.75C275.24 137.29 273.84 139.46 272.2 142.26Z" fill="#191919"/>
<path d="M296.59 152.76C294.19 152.76 292.43 151.79 291.31 149.85C290.19 147.91 289.93 145.28 290.53 141.96C291.09 139 292.12 136.44 293.62 134.28C295.12 132.12 297.03 130.45 299.35 129.27C301.67 128.09 304.27 127.5 307.15 127.5H310.21L309.55 131.76H307.39C304.23 131.76 301.57 132.68 299.41 134.52C297.25 136.36 295.89 138.84 295.33 141.96C295.01 143.96 295.08 145.55 295.54 146.73C296 147.91 296.71 148.5 297.67 148.5C298.99 148.5 300.55 147.19 302.35 144.57C304.15 141.95 305.93 138.3 307.69 133.62L307.03 142.02C305.55 145.62 303.89 148.31 302.05 150.09C300.21 151.87 298.39 152.76 296.59 152.76ZM306.85 152.46C305.97 152.46 305.38 152.22 305.08 151.74C304.78 151.26 304.67 150.8 304.75 150.36L308.77 127.5H311.35C312.11 127.5 312.61 127.78 312.85 128.34C313.09 128.9 313.13 129.6 312.97 130.44L309.43 150.48C309.39 150.76 309.21 151.16 308.89 151.68C308.57 152.2 307.89 152.46 306.85 152.46Z" fill="#191919"/>
<path d="M317.65 152.46C316.73 152.46 316.15 152.22 315.91 151.74C315.67 151.26 315.57 150.8 315.61 150.36L319.27 129.78C319.35 129.38 319.49 129.01 319.69 128.67C319.89 128.33 320.19 128.05 320.59 127.83C320.99 127.61 321.53 127.5 322.21 127.5C322.97 127.5 323.5 127.72 323.8 128.16C324.1 128.6 324.19 129.18 324.07 129.9L320.41 150.48C320.37 150.76 320.16 151.16 319.78 151.68C319.4 152.2 318.69 152.46 317.65 152.46ZM332.83 152.46C331.95 152.46 331.36 152.19 331.06 151.65C330.76 151.11 330.65 150.6 330.73 150.12L333.13 136.44C333.33 135.56 333.37 134.74 333.25 133.98C333.13 133.22 332.85 132.59 332.41 132.09C331.97 131.59 331.31 131.34 330.43 131.34C329.15 131.34 327.84 132.12 326.5 133.68C325.16 135.24 323.47 137.66 321.43 140.94L322.39 134.4C323.95 132.04 325.38 130.24 326.68 129C327.98 127.76 329.57 127.14 331.45 127.14C333.17 127.14 334.56 127.56 335.62 128.4C336.68 129.24 337.41 130.41 337.81 131.91C338.21 133.41 338.23 135.1 337.87 136.98L335.47 150.66C335.39 150.94 335.19 151.31 334.87 151.77C334.55 152.23 333.87 152.46 332.83 152.46ZM347.83 152.46C346.95 152.46 346.37 152.19 346.09 151.65C345.81 151.11 345.71 150.6 345.79 150.12L348.19 136.44C348.35 135.56 348.38 134.74 348.28 133.98C348.18 133.22 347.91 132.59 347.47 132.09C347.03 131.59 346.39 131.34 345.55 131.34C344.23 131.34 342.89 132.12 341.53 133.68C340.17 135.24 338.47 137.66 336.43 140.94L337.45 134.4C338.97 132.04 340.39 130.24 341.71 129C343.03 127.76 344.61 127.14 346.45 127.14C348.29 127.14 349.63 127.56 350.71 128.4C351.79 129.24 352.52 130.41 352.9 131.91C353.28 133.41 353.29 135.1 352.93 136.98L350.53 150.66C350.45 150.94 350.24 151.31 349.9 151.77C349.56 152.23 348.87 152.46 347.83 152.46Z" fill="#191919"/>
</svg>
